<?xml version="1.0" standalone="no"?>
<!DOCTYPE svg PUBLIC "-//W3C//DTD SVG 20010904//EN"
 "http://www.w3.org/TR/2001/REC-SVG-20010904/DTD/svg10.dtd">
<svg version="1.0" xmlns="http://www.w3.org/2000/svg"
 width="813.000000pt" height="532.000000pt" viewBox="0 0 813.000000 532.000000"
 preserveAspectRatio="xMidYMid meet">

<g transform="translate(0.000000,532.000000) scale(0.100000,-0.100000)"
fill="#000000" stroke="none">
<path d="M0 2660 l0 -2660 4065 0 4065 0 0 2660 0 2660 -4065 0 -4065 0 0
-2660z m2226 635 c23 -9 40 -25 47 -44 11 -29 11 -29 76 -25 55 5 72 2 99 -15
43 -27 68 -71 76 -132 5 -40 10 -49 26 -49 38 0 96 -31 113 -59 19 -32 22 -96
8 -134 -8 -20 -6 -29 11 -43 30 -28 48 -69 48 -111 0 -40 -30 -115 -57 -145
-39 -43 -44 -3 -8 57 32 52 34 121 4 160 l-22 27 -25 -27 c-31 -33 -71 -51
-139 -60 -45 -6 -53 -4 -53 9 0 29 27 80 55 106 22 21 36 25 86 25 l59 -1 11
39 c17 65 -10 105 -79 114 -37 5 -39 4 -45 -27 -14 -67 -78 -120 -146 -120
-30 0 -31 2 -31 43 0 72 36 110 133 141 37 12 11 120 -36 151 -28 18 -65 22
-114 11 -27 -6 -34 -14 -43 -47 -6 -22 -29 -58 -51 -81 -39 -41 -41 -42 -55
-24 -8 11 -14 36 -14 55 0 28 8 42 45 77 25 23 45 46 45 51 0 5 -11 20 -24 32
-23 22 -30 23 -100 16 -50 -4 -76 -3 -76 4 0 34 116 51 176 26z m-480 -74 c17
-10 41 -35 53 -54 20 -34 23 -34 61 -26 24 5 49 5 65 -1 30 -11 65 -65 65
-101 0 -19 8 -29 32 -40 62 -27 93 -107 72 -186 -12 -44 -24 -22 -24 43 0 59
-3 68 -29 95 -16 16 -33 29 -38 29 -5 0 -17 -16 -26 -35 -15 -31 -99 -104
-121 -105 -5 0 -6 25 -4 55 5 63 32 100 79 110 31 7 36 25 19 70 -12 31 -48
46 -87 36 -26 -7 -28 -11 -25 -49 4 -50 -24 -102 -64 -121 -32 -14 -49 -3 -57
36 -7 36 8 71 45 110 l31 32 -26 40 c-29 43 -60 57 -104 46 -46 -11 -73 -43
-66 -76 6 -31 -22 -119 -37 -119 -15 0 -40 43 -40 67 0 12 7 38 17 57 14 30
14 37 3 51 -18 21 -69 14 -109 -14 -31 -23 -51 -27 -51 -11 0 15 71 59 108 66
25 5 40 2 61 -14 l27 -20 40 24 c47 29 88 30 130 5z m2397 -2 c47 -12 111 -69
140 -123 21 -40 22 -53 25 -420 3 -419 1 -436 -60 -510 -50 -61 -115 -86 -224
-86 -79 0 -97 3 -145 28 -60 30 -112 91 -129 150 -6 22 -10 183 -10 407 0 367
0 370 24 420 26 55 65 99 110 122 62 32 176 37 269 12z m1011 6 c30 -30 33
-128 5 -162 -8 -9 -43 -13 -130 -13 l-119 0 0 -469 c0 -519 2 -499 -63 -502
-55 -3 -102 3 -114 13 -10 8 -13 117 -13 484 l0 474 -124 0 c-87 0 -126 4
-133 13 -27 33 -20 150 9 168 7 5 160 9 340 9 280 0 329 -2 342 -15z m344 4
l31 -10 3 -408 3 -407 30 -59 c24 -48 38 -62 67 -73 34 -13 41 -13 75 5 26 14
46 35 63 69 l25 48 3 407 c3 341 5 409 18 419 19 16 140 16 159 0 22 -18 22
-764 0 -858 -42 -176 -158 -282 -311 -282 -86 0 -153 29 -212 94 -101 110
-111 169 -112 657 0 290 3 379 13 387 27 22 98 28 145 11z m1099 -18 c75 -38
133 -124 133 -198 0 -29 -32 -45 -89 -46 -63 -1 -90 10 -101 39 -17 44 -87 54
-133 19 -10 -7 -21 -31 -24 -53 -10 -73 11 -106 153 -253 157 -162 193 -221
201 -334 10 -129 -39 -220 -149 -274 -148 -75 -319 -11 -383 142 -19 46 -19
111 -1 126 9 7 41 11 83 9 l68 -3 20 -41 c30 -62 43 -74 84 -74 51 0 91 38 91
86 0 60 -29 104 -166 245 -166 173 -189 214 -189 344 0 106 14 153 63 207 60
66 125 90 234 83 39 -2 82 -12 105 -24z m-3306 -1 c18 -10 19 -26 19 -480 l0
-470 124 0 c141 0 136 4 136 -90 0 -97 17 -90 -225 -90 -185 0 -214 2 -219 16
-3 9 -6 262 -6 564 0 514 1 549 18 553 34 9 134 7 153 -3z m-1065 -484 l-6
-84 50 -55 c28 -30 50 -59 50 -64 0 -5 -34 -17 -75 -27 l-75 -18 -36 -64 c-20
-35 -39 -66 -43 -68 -4 -3 -27 25 -52 62 -47 71 -37 65 -172 96 l-27 6 51 62
51 62 -6 83 c-4 46 -5 83 -3 83 2 0 37 -13 76 -30 l72 -29 72 34 c40 18 74 34
76 34 2 1 1 -37 -3 -83z m502 -256 l103 0 -47 -89 -48 -88 28 -92 c15 -51 26
-95 24 -97 -3 -2 -46 3 -97 11 -51 9 -98 12 -104 8 -7 -4 -42 -29 -80 -55 -37
-26 -69 -48 -71 -48 -2 0 -9 37 -15 83 -7 45 -14 89 -17 98 -2 8 -38 40 -79
70 -41 30 -75 56 -75 59 0 3 39 25 87 50 l87 45 30 93 30 92 71 -70 70 -70
103 0z"/>
<path d="M2218 3128 c-28 -44 -30 -65 -3 -33 14 17 25 36 25 43 0 18 -6 15
-22 -10z"/>
<path d="M2444 2976 c-36 -16 -74 -61 -74 -87 0 -15 4 -17 29 -8 34 12 66 44
80 82 12 30 9 32 -35 13z"/>
<path d="M2498 2770 c-17 -17 -28 -33 -25 -36 10 -10 87 17 114 41 l28 24 -43
1 c-35 0 -49 -6 -74 -30z"/>
<path d="M1557 3107 c-4 -10 -7 -28 -6 -40 0 -21 1 -21 10 2 5 14 8 32 7 40
-3 13 -5 13 -11 -2z"/>
<path d="M1778 3062 c-27 -30 -38 -60 -30 -80 6 -17 10 -18 23 -9 32 24 52 88
30 101 -4 3 -15 -2 -23 -12z"/>
<path d="M1918 2964 c-25 -13 -48 -58 -35 -70 8 -8 64 45 70 66 6 24 1 24 -35
4z"/>
<path d="M3958 3015 c-14 -14 -28 -39 -32 -56 -3 -18 -6 -157 -6 -311 0 -293
5 -332 48 -364 27 -21 95 -17 120 6 36 34 42 83 42 372 0 286 -3 314 -42 356
-31 32 -97 31 -130 -3z"/>
</g>
</svg>
